<mxfile host="Electron" agent="Mozilla/5.0 (Windows NT 10.0; Win64; x64) AppleWebKit/537.36 (KHTML, like Gecko) draw.io/28.1.2 Chrome/138.0.7204.243 Electron/37.4.0 Safari/537.36" version="28.1.2">
  <diagram name="Page-1" id="vXVIEtXpuklljkdBr5-8">
    <mxGraphModel dx="3072" dy="3127" grid="1" gridSize="10" guides="1" tooltips="1" connect="1" arrows="1" fold="1" page="1" pageScale="1" pageWidth="1100" pageHeight="850" math="0" shadow="0">
      <root>
        <mxCell id="0" />
        <mxCell id="1" parent="0" />
        <mxCell id="jaN7eDypnWauGgmfkwOd-1" value="&lt;font style=&quot;font-size: 26px;&quot;&gt;HIGH LEVEL ARCHITECTURE&lt;/font&gt;" style="text;html=1;align=center;verticalAlign=middle;resizable=0;points=[];autosize=1;strokeColor=none;fillColor=none;rounded=1;fontSize=20;" parent="1" vertex="1">
          <mxGeometry x="-2111.6" y="-2330" width="390" height="40" as="geometry" />
        </mxCell>
        <mxCell id="jaN7eDypnWauGgmfkwOd-2" value="" style="rounded=0;whiteSpace=wrap;html=1;rotation=90;fillColor=none;dashed=1;strokeColor=#000000;fontColor=#0E0E0E;" parent="1" vertex="1">
          <mxGeometry x="-2292" y="-1984.95" width="522.5" height="118.3" as="geometry" />
        </mxCell>
        <mxCell id="jaN7eDypnWauGgmfkwOd-3" value="&lt;font style=&quot;font-size: 24px;&quot;&gt;SOURCES&lt;/font&gt;" style="text;html=1;align=center;verticalAlign=middle;resizable=0;points=[];autosize=1;fillColor=default;" parent="1" vertex="1">
          <mxGeometry x="-2084.1" y="-2242.05" width="140" height="40" as="geometry" />
        </mxCell>
        <mxCell id="jaN7eDypnWauGgmfkwOd-5" value="" style="rounded=0;whiteSpace=wrap;html=1;rotation=90;fillColor=none;dashed=1;strokeColor=#0E0E0E;" parent="1" vertex="1">
          <mxGeometry x="-1905.86" y="-2218.24" width="523.67" height="583.9" as="geometry" />
        </mxCell>
        <mxCell id="jaN7eDypnWauGgmfkwOd-6" value="" style="rounded=0;whiteSpace=wrap;html=1;rotation=90;fillColor=none;dashed=1;strokeColor=#000000;" parent="1" vertex="1">
          <mxGeometry x="-1533.1299999999999" y="-1980.51" width="526.02" height="112.95" as="geometry" />
        </mxCell>
        <mxCell id="jaN7eDypnWauGgmfkwOd-7" value="&lt;font style=&quot;font-size: 24px;&quot;&gt;CONSUMER&lt;/font&gt;" style="text;html=1;align=center;verticalAlign=middle;resizable=0;points=[];autosize=1;strokeColor=none;fillColor=default;" parent="1" vertex="1">
          <mxGeometry x="-1350.12" y="-2242.05" width="160" height="40" as="geometry" />
        </mxCell>
        <mxCell id="jaN7eDypnWauGgmfkwOd-8" value="&lt;font style=&quot;font-size: 24px;&quot;&gt;DATA WAREHOUSE&lt;/font&gt;" style="text;html=1;align=center;verticalAlign=middle;resizable=0;points=[];autosize=1;fillColor=default;" parent="1" vertex="1">
          <mxGeometry x="-1767.85" y="-2242.05" width="250" height="40" as="geometry" />
        </mxCell>
        <mxCell id="jaN7eDypnWauGgmfkwOd-9" value="&lt;font style=&quot;font-size: 20px;&quot;&gt;BRONZE LAYER&lt;/font&gt;" style="rounded=0;whiteSpace=wrap;html=1;fillColor=#e1d5e7;strokeColor=#9673a6;" parent="1" vertex="1">
          <mxGeometry x="-1909.1" y="-2172.05" width="160" height="32.05" as="geometry" />
        </mxCell>
        <mxCell id="jaN7eDypnWauGgmfkwOd-12" value="" style="rounded=0;whiteSpace=wrap;html=1;fillColor=none;strokeColor=#9673a6;" parent="1" vertex="1">
          <mxGeometry x="-1909.1" y="-2131" width="160" height="451" as="geometry" />
        </mxCell>
        <mxCell id="jaN7eDypnWauGgmfkwOd-16" value="&lt;div style=&quot;text-align: justify;&quot;&gt;&lt;br&gt;&lt;/div&gt;" style="rounded=0;whiteSpace=wrap;html=1;fillColor=none;strokeColor=#d6b656;align=center;" parent="1" vertex="1">
          <mxGeometry x="-1721.6" y="-2130" width="157.5" height="450" as="geometry" />
        </mxCell>
        <mxCell id="jaN7eDypnWauGgmfkwOd-17" value="&lt;font style=&quot;font-size: 20px;&quot;&gt;SILVER LAYER&lt;/font&gt;" style="rounded=0;whiteSpace=wrap;html=1;fillColor=#fff2cc;strokeColor=#d6b656;" parent="1" vertex="1">
          <mxGeometry x="-1721.6" y="-2172.05" width="157.5" height="32.05" as="geometry" />
        </mxCell>
        <mxCell id="jaN7eDypnWauGgmfkwOd-18" value="" style="rounded=0;whiteSpace=wrap;html=1;fillColor=none;strokeColor=#33FFFF;" parent="1" vertex="1">
          <mxGeometry x="-1541.6" y="-2130" width="163.5" height="450" as="geometry" />
        </mxCell>
        <mxCell id="jaN7eDypnWauGgmfkwOd-19" value="&lt;font style=&quot;font-size: 20px;&quot;&gt;GOLD LAYER&lt;/font&gt;" style="rounded=0;whiteSpace=wrap;html=1;fillColor=#dae8fc;strokeColor=#6c8ebf;" parent="1" vertex="1">
          <mxGeometry x="-1541.6" y="-2173.05" width="163.5" height="33.05" as="geometry" />
        </mxCell>
        <mxCell id="jaN7eDypnWauGgmfkwOd-25" value="CRM" style="image;aspect=fixed;html=1;points=[];align=center;fontSize=12;image=img/lib/azure2/general/Folder_Blank.svg;" parent="1" vertex="1">
          <mxGeometry x="-2055.4" y="-2060" width="49.29" height="40" as="geometry" />
        </mxCell>
        <mxCell id="jaN7eDypnWauGgmfkwOd-26" value="" style="image;aspect=fixed;html=1;points=[];align=center;fontSize=12;image=img/lib/azure2/general/File.svg;" parent="1" vertex="1">
          <mxGeometry x="-2030.4599999999998" y="-2050" width="24.35" height="30" as="geometry" />
        </mxCell>
        <mxCell id="jaN7eDypnWauGgmfkwOd-32" value="ERP" style="image;aspect=fixed;html=1;points=[];align=center;fontSize=12;image=img/lib/azure2/general/Folder_Blank.svg;" parent="1" vertex="1">
          <mxGeometry x="-2055.4" y="-1925" width="49.29" height="40" as="geometry" />
        </mxCell>
        <mxCell id="jaN7eDypnWauGgmfkwOd-33" value="" style="image;aspect=fixed;html=1;points=[];align=center;fontSize=12;image=img/lib/azure2/general/File.svg;" parent="1" vertex="1">
          <mxGeometry x="-2030.4599999999998" y="-1915" width="24.35" height="30" as="geometry" />
        </mxCell>
        <mxCell id="jaN7eDypnWauGgmfkwOd-36" value="" style="html=1;verticalLabelPosition=bottom;align=center;labelBackgroundColor=#ffffff;verticalAlign=top;strokeWidth=2;strokeColor=#0080F0;shadow=0;dashed=0;shape=mxgraph.ios7.icons.data;" parent="1" vertex="1">
          <mxGeometry x="-1855.1" y="-2049.5" width="52" height="59" as="geometry" />
        </mxCell>
        <mxCell id="jaN7eDypnWauGgmfkwOd-37" value="" style="html=1;verticalLabelPosition=bottom;align=center;labelBackgroundColor=#ffffff;verticalAlign=top;strokeWidth=2;strokeColor=#0080F0;shadow=0;dashed=0;shape=mxgraph.ios7.icons.data;" parent="1" vertex="1">
          <mxGeometry x="-1671.01" y="-2050" width="54" height="60" as="geometry" />
        </mxCell>
        <mxCell id="jaN7eDypnWauGgmfkwOd-38" value="" style="html=1;verticalLabelPosition=bottom;align=center;labelBackgroundColor=#ffffff;verticalAlign=top;strokeWidth=2;strokeColor=#0080F0;shadow=0;dashed=0;shape=mxgraph.ios7.icons.data;" parent="1" vertex="1">
          <mxGeometry x="-1486.85" y="-2050.5" width="54" height="60" as="geometry" />
        </mxCell>
        <mxCell id="jaN7eDypnWauGgmfkwOd-40" value="" style="shape=singleArrow;whiteSpace=wrap;html=1;fillColor=#dae8fc;strokeColor=#6c8ebf;" parent="1" vertex="1">
          <mxGeometry x="-1975.86" y="-1965.5" width="70" height="45.5" as="geometry" />
        </mxCell>
        <mxCell id="jaN7eDypnWauGgmfkwOd-41" value="" style="shape=singleArrow;whiteSpace=wrap;html=1;fillColor=#dae8fc;strokeColor=#6c8ebf;" parent="1" vertex="1">
          <mxGeometry x="-1767.85" y="-1960.5" width="66.25" height="35.5" as="geometry" />
        </mxCell>
        <mxCell id="jaN7eDypnWauGgmfkwOd-42" value="" style="shape=singleArrow;whiteSpace=wrap;html=1;fillColor=#dae8fc;strokeColor=#6c8ebf;" parent="1" vertex="1">
          <mxGeometry x="-1588.1" y="-1960.5" width="63.25" height="35.5" as="geometry" />
        </mxCell>
        <mxCell id="jaN7eDypnWauGgmfkwOd-43" value="" style="shape=singleArrow;whiteSpace=wrap;html=1;fillColor=#dae8fc;strokeColor=#6c8ebf;" parent="1" vertex="1">
          <mxGeometry x="-1364.1" y="-1955.5" width="52.5" height="35.5" as="geometry" />
        </mxCell>
        <mxCell id="jaN7eDypnWauGgmfkwOd-45" value="&lt;font style=&quot;font-size: 10px;&quot;&gt;OBJECT TYPE -&amp;nbsp;&lt;span style=&quot;background-color: transparent; color: light-dark(rgb(0, 0, 0), rgb(255, 255, 255));&quot;&gt;TABLE&lt;/span&gt;&lt;/font&gt;&lt;div&gt;&lt;font style=&quot;font-size: 10px;&quot;&gt;&lt;span style=&quot;background-color: transparent; color: light-dark(rgb(0, 0, 0), rgb(255, 255, 255));&quot;&gt;&lt;br&gt;&lt;/span&gt;&lt;/font&gt;&lt;/div&gt;&lt;div&gt;&lt;font style=&quot;&quot;&gt;&lt;span style=&quot;background-color: transparent; color: light-dark(rgb(0, 0, 0), rgb(255, 255, 255));&quot;&gt;&lt;span style=&quot;font-size: 10px;&quot;&gt;LOAD :&amp;nbsp;&lt;/span&gt;&lt;br&gt;&lt;ul style=&quot;&quot;&gt;&lt;li style=&quot;&quot;&gt;&lt;font style=&quot;font-size: 8px;&quot;&gt;&lt;span style=&quot;background-color: transparent; color: light-dark(rgb(0, 0, 0), rgb(255, 255, 255));&quot;&gt;BATCH PROCESSING&lt;/span&gt;&lt;/font&gt;&lt;/li&gt;&lt;li style=&quot;&quot;&gt;&lt;font style=&quot;font-size: 8px;&quot;&gt;&lt;span style=&quot;background-color: transparent; color: light-dark(rgb(0, 0, 0), rgb(255, 255, 255));&quot;&gt;FULL LOAD (TRUNC &amp;amp; INSERT)&lt;/span&gt;&lt;/font&gt;&lt;/li&gt;&lt;/ul&gt;&lt;div&gt;&lt;span style=&quot;font-size: 8px;&quot;&gt;NO TARNSFORMATIONS&lt;/span&gt;&lt;/div&gt;&lt;div&gt;&lt;span style=&quot;font-size: 8px;&quot;&gt;DATA MODEL - NONE&lt;/span&gt;&lt;/div&gt;&lt;/span&gt;&lt;/font&gt;&lt;/div&gt;" style="text;html=1;align=left;verticalAlign=middle;whiteSpace=wrap;rounded=0;" parent="1" vertex="1">
          <mxGeometry x="-1894.1" y="-1950" width="130" height="260" as="geometry" />
        </mxCell>
        <mxCell id="jaN7eDypnWauGgmfkwOd-47" value="&lt;font style=&quot;font-size: 10px;&quot;&gt;OBJECT TYPE -&amp;nbsp;&lt;span style=&quot;background-color: transparent; color: light-dark(rgb(0, 0, 0), rgb(255, 255, 255));&quot;&gt;TABLE&lt;/span&gt;&lt;/font&gt;&lt;div&gt;&lt;font style=&quot;font-size: 10px;&quot;&gt;&lt;span style=&quot;background-color: transparent; color: light-dark(rgb(0, 0, 0), rgb(255, 255, 255));&quot;&gt;&lt;br&gt;&lt;/span&gt;&lt;/font&gt;&lt;/div&gt;&lt;div&gt;&lt;font style=&quot;&quot;&gt;&lt;span style=&quot;background-color: transparent; color: light-dark(rgb(0, 0, 0), rgb(255, 255, 255));&quot;&gt;&lt;span style=&quot;font-size: 10px;&quot;&gt;LOAD :&amp;nbsp; NO&lt;br&gt;&lt;br&gt;TARNSFORMATIONS:&lt;/span&gt;&lt;/span&gt;&lt;/font&gt;&lt;/div&gt;&lt;div&gt;&lt;ul&gt;&lt;li&gt;&lt;font style=&quot;&quot;&gt;&lt;span style=&quot;background-color: transparent; color: light-dark(rgb(0, 0, 0), rgb(255, 255, 255));&quot;&gt;&lt;span style=&quot;font-size: 10px;&quot;&gt;INTEGRATIONS&lt;/span&gt;&lt;/span&gt;&lt;/font&gt;&lt;/li&gt;&lt;li&gt;&lt;font style=&quot;&quot;&gt;&lt;span style=&quot;background-color: transparent; color: light-dark(rgb(0, 0, 0), rgb(255, 255, 255));&quot;&gt;&lt;span style=&quot;font-size: 10px;&quot;&gt;AGGREGATIONS&lt;/span&gt;&lt;/span&gt;&lt;/font&gt;&lt;/li&gt;&lt;li&gt;&lt;font style=&quot;&quot;&gt;&lt;span style=&quot;background-color: transparent; color: light-dark(rgb(0, 0, 0), rgb(255, 255, 255));&quot;&gt;&lt;span style=&quot;font-size: 10px;&quot;&gt;BUSSINESS LOGICS&lt;/span&gt;&lt;/span&gt;&lt;/font&gt;&lt;/li&gt;&lt;/ul&gt;&lt;div&gt;&lt;span style=&quot;font-size: 10px;&quot;&gt;DATA MODEL:&lt;/span&gt;&lt;/div&gt;&lt;div&gt;&lt;ul&gt;&lt;li&gt;&lt;span style=&quot;font-size: 10px;&quot;&gt;STAR SCHEMA&lt;/span&gt;&lt;/li&gt;&lt;li&gt;&lt;span style=&quot;font-size: 10px;&quot;&gt;FLAT TABLE&lt;/span&gt;&lt;/li&gt;&lt;li&gt;&lt;span style=&quot;font-size: 10px;&quot;&gt;AGGREGATED TABLE&lt;/span&gt;&lt;/li&gt;&lt;/ul&gt;&lt;/div&gt;&lt;font style=&quot;&quot;&gt;&lt;span style=&quot;background-color: transparent; color: light-dark(rgb(0, 0, 0), rgb(255, 255, 255));&quot;&gt;&lt;div&gt;&lt;span style=&quot;font-size: 8px;&quot;&gt;&lt;br&gt;&lt;/span&gt;&lt;/div&gt;&lt;/span&gt;&lt;/font&gt;&lt;/div&gt;" style="text;html=1;align=left;verticalAlign=middle;whiteSpace=wrap;rounded=0;" parent="1" vertex="1">
          <mxGeometry x="-1524.85" y="-1950" width="130" height="260" as="geometry" />
        </mxCell>
        <mxCell id="jaN7eDypnWauGgmfkwOd-48" value="&lt;font style=&quot;font-size: 10px;&quot;&gt;OBJECT TYPE -&amp;nbsp;&lt;span style=&quot;background-color: transparent; color: light-dark(rgb(0, 0, 0), rgb(255, 255, 255));&quot;&gt;TABLE&lt;/span&gt;&lt;/font&gt;&lt;div&gt;&lt;font style=&quot;font-size: 10px;&quot;&gt;&lt;span style=&quot;background-color: transparent; color: light-dark(rgb(0, 0, 0), rgb(255, 255, 255));&quot;&gt;&lt;br&gt;&lt;/span&gt;&lt;/font&gt;&lt;/div&gt;&lt;div&gt;&lt;font style=&quot;&quot;&gt;&lt;span style=&quot;background-color: transparent; color: light-dark(rgb(0, 0, 0), rgb(255, 255, 255));&quot;&gt;&lt;span style=&quot;font-size: 10px;&quot;&gt;LOAD :&amp;nbsp;&lt;/span&gt;&lt;br&gt;&lt;ul style=&quot;&quot;&gt;&lt;li style=&quot;&quot;&gt;&lt;font style=&quot;font-size: 8px;&quot;&gt;&lt;span style=&quot;background-color: transparent; color: light-dark(rgb(0, 0, 0), rgb(255, 255, 255));&quot;&gt;BATCH PROCESSING&lt;/span&gt;&lt;/font&gt;&lt;/li&gt;&lt;li style=&quot;&quot;&gt;&lt;font style=&quot;font-size: 8px;&quot;&gt;&lt;span style=&quot;background-color: transparent; color: light-dark(rgb(0, 0, 0), rgb(255, 255, 255));&quot;&gt;FULL LOAD (TRUNC &amp;amp; INSERT)&lt;/span&gt;&lt;/font&gt;&lt;/li&gt;&lt;/ul&gt;&lt;div&gt;&lt;span style=&quot;font-size: 8px;&quot;&gt;TARNSFORMATIONS&lt;/span&gt;&lt;/div&gt;&lt;div&gt;&lt;ul&gt;&lt;li&gt;&lt;span style=&quot;font-size: 8px;&quot;&gt;CLEANSING&lt;/span&gt;&lt;/li&gt;&lt;li&gt;&lt;span style=&quot;font-size: 8px;&quot;&gt;STANDRIZATION&lt;/span&gt;&lt;/li&gt;&lt;li&gt;&lt;span style=&quot;font-size: 8px;&quot;&gt;NORMALIZTION&lt;/span&gt;&lt;/li&gt;&lt;li&gt;&lt;span style=&quot;font-size: 8px;&quot;&gt;DERIVED COLUMNS&lt;/span&gt;&lt;/li&gt;&lt;li&gt;&lt;span style=&quot;font-size: 8px;&quot;&gt;ENRICHMENT&lt;/span&gt;&lt;/li&gt;&lt;/ul&gt;&lt;/div&gt;&lt;div&gt;&lt;span style=&quot;font-size: 8px;&quot;&gt;DATA MODEL - NONE&lt;/span&gt;&lt;/div&gt;&lt;/span&gt;&lt;/font&gt;&lt;/div&gt;" style="text;html=1;align=left;verticalAlign=middle;whiteSpace=wrap;rounded=0;" parent="1" vertex="1">
          <mxGeometry x="-1707.85" y="-1950" width="130" height="260" as="geometry" />
        </mxCell>
        <mxCell id="jaN7eDypnWauGgmfkwOd-50" value="Text" style="text;html=1;align=center;verticalAlign=middle;whiteSpace=wrap;rounded=0;" parent="1" vertex="1">
          <mxGeometry x="-1859.1" y="-1982.05" width="60" height="30" as="geometry" />
        </mxCell>
        <mxCell id="jaN7eDypnWauGgmfkwOd-51" value="Text" style="text;html=1;align=center;verticalAlign=middle;whiteSpace=wrap;rounded=0;" parent="1" vertex="1">
          <mxGeometry x="-1674.01" y="-1982.05" width="60" height="30" as="geometry" />
        </mxCell>
        <mxCell id="jaN7eDypnWauGgmfkwOd-52" value="Text" style="text;html=1;align=center;verticalAlign=middle;whiteSpace=wrap;rounded=0;" parent="1" vertex="1">
          <mxGeometry x="-1489.85" y="-1982.05" width="60" height="30" as="geometry" />
        </mxCell>
        <mxCell id="jaN7eDypnWauGgmfkwOd-54" value="BI REPORTING" style="image;aspect=fixed;html=1;points=[];align=center;fontSize=12;image=img/lib/azure2/power_platform/PowerBI.svg;" parent="1" vertex="1">
          <mxGeometry x="-1296.37" y="-2125" width="52.5" height="70" as="geometry" />
        </mxCell>
        <mxCell id="jaN7eDypnWauGgmfkwOd-55" value="SQL QUERIES" style="sketch=0;points=[[0,0,0],[0.25,0,0],[0.5,0,0],[0.75,0,0],[1,0,0],[0,1,0],[0.25,1,0],[0.5,1,0],[0.75,1,0],[1,1,0],[0,0.25,0],[0,0.5,0],[0,0.75,0],[1,0.25,0],[1,0.5,0],[1,0.75,0]];outlineConnect=0;fontColor=#232F3E;fillColor=#8C4FFF;strokeColor=#ffffff;dashed=0;verticalLabelPosition=bottom;verticalAlign=top;align=center;html=1;fontSize=12;fontStyle=0;aspect=fixed;shape=mxgraph.aws4.resourceIcon;resIcon=mxgraph.aws4.sql_workbench;" parent="1" vertex="1">
          <mxGeometry x="-1296.37" y="-1980.51" width="60" height="60" as="geometry" />
        </mxCell>
        <mxCell id="jaN7eDypnWauGgmfkwOd-58" value="ML" style="outlineConnect=0;dashed=0;verticalLabelPosition=bottom;verticalAlign=top;align=center;html=1;shape=mxgraph.aws3.machine_learning;fillColor=#2E73B8;gradientColor=none;" parent="1" vertex="1">
          <mxGeometry x="-1308.37" y="-1830" width="76.5" height="93" as="geometry" />
        </mxCell>
        <mxCell id="jaN7eDypnWauGgmfkwOd-62" value="" style="image;aspect=fixed;html=1;points=[];align=center;fontSize=12;image=img/lib/azure2/databases/Azure_Database_PostgreSQL_Server.svg;" parent="1" vertex="1">
          <mxGeometry x="-1931.6" y="-2254.05" width="48" height="64" as="geometry" />
        </mxCell>
        <mxCell id="jaN7eDypnWauGgmfkwOd-64" value="" style="outlineConnect=0;dashed=0;verticalLabelPosition=bottom;verticalAlign=top;align=center;html=1;shape=mxgraph.aws3.postgre_sql_instance;fillColor=#2E73B8;gradientColor=none;" parent="1" vertex="1">
          <mxGeometry x="-1881.6" y="-2240" width="80" height="49.95" as="geometry" />
        </mxCell>
      </root>
    </mxGraphModel>
  </diagram>
</mxfile>
